<svg viewBox="0 0 800 157" fill="none" xmlns="http://www.w3.org/2000/svg">
<path d="M209.955 156.578C227.84 156.578 241.155 147.846 248.434 133.93H250.098V153.254H273.597V0H250.098V67.0766H248.434C241.155 52.9618 227.84 44.4283 209.756 44.4283C180.221 44.4283 159.429 67.0766 159.429 100.491C159.429 133.905 180.022 156.553 209.955 156.553V156.578ZM217.035 136.435C197.286 136.435 183.127 121.279 183.127 100.516C183.127 79.7527 197.261 64.596 217.035 64.596C236.808 64.596 250.942 79.7527 250.942 100.516C250.942 121.279 236.584 136.435 217.035 136.435Z" fill="#233DFF"/>
<path d="M341.363 156.578C375.668 156.578 398.969 134.352 398.969 100.516C398.969 66.6797 375.668 44.4531 341.363 44.4531C307.058 44.4531 283.981 66.4564 283.981 100.516C283.981 134.575 307.257 156.578 341.363 156.578ZM341.363 136.435C321.615 136.435 307.455 121.477 307.455 100.516C307.455 79.5542 321.59 64.596 341.363 64.596C361.136 64.596 375.47 79.5542 375.47 100.516C375.47 121.477 361.335 136.435 341.363 136.435Z" fill="#233DFF"/>
<path d="M409.129 153.254H432.629V91.5854C432.629 75.1883 442.391 64.596 457.171 64.596C471.107 64.596 480.472 75.1883 480.472 91.5854V153.254H504.17V91.5854C504.17 75.3868 513.957 64.596 528.912 64.596C543.468 64.7944 552.61 75.8085 552.61 91.5854V153.254H576.333V86.7978C576.333 61.4704 560.534 44.4283 537.432 44.4283C519.77 44.4283 507.474 53.5571 502.506 68.0937H501.04C496.47 53.7556 483.378 44.4283 466.934 44.4283C451.955 44.4283 440.106 52.5401 434.293 64.9929H432.629V47.7524H409.129V153.254Z" fill="#233DFF"/>
<path d="M642.186 156.578C676.491 156.578 699.792 134.352 699.792 100.516C699.792 66.6797 676.491 44.4531 642.186 44.4531C607.881 44.4531 584.804 66.4564 584.804 100.516C584.804 134.575 608.08 156.578 642.186 156.578ZM642.186 136.435C622.438 136.435 608.278 121.477 608.278 100.516C608.278 79.5542 622.413 64.596 642.186 64.596C661.959 64.596 676.293 79.5542 676.293 100.516C676.293 121.477 662.158 136.435 642.186 136.435Z" fill="#233DFF"/>
<path d="M752.181 157C780.674 157 800 143.927 800 122.742C800 97.6134 776.699 93.8676 756.951 91.1885C741.351 89.1048 727.018 87.666 727.018 74.3698C727.018 65.4394 736.383 59.213 749.697 59.213C764.875 59.213 775.06 67.1015 775.06 79.1574H796.274C796.274 57.7494 776.923 44.0563 749.697 44.0563C722.472 44.0563 705.182 56.9308 705.182 76.6519C705.182 103.021 729.303 105.725 748.232 108.007C762.987 109.893 776.525 111.133 776.525 125.446C776.525 135.418 766.341 141.843 752.405 141.843C735.563 141.843 724.111 132.715 723.913 119.617H703.543C703.543 142.042 722.869 157 752.206 157H752.181Z" fill="#233DFF"/>
<mask id="mask0_90_173" style="mask-type:luminance" maskUnits="userSpaceOnUse" x="0" y="47" width="88" height="108">
<path d="M87.6137 47.5787H0V154.098H87.6137V47.5787Z" fill="white"/>
</mask>
<g mask="url(#mask0_90_173)">
<path d="M40.7886 47.5787H0.0744629L47.5702 100.838L0.0744629 154.098H40.7886L88.2595 100.838L40.7886 47.5787Z" fill="#233DFF"/>
</g>
<mask id="mask1_90_173" style="mask-type:luminance" maskUnits="userSpaceOnUse" x="58" y="47" width="89" height="108">
<path d="M146.213 47.5787H58.5996V154.098H146.213V47.5787Z" fill="white"/>
</mask>
<g mask="url(#mask1_90_173)">
<path d="M99.3884 47.5787H58.6742L106.17 100.838L58.6742 154.098H99.3884L146.859 100.838L99.3884 47.5787Z" fill="#233DFF"/>
</g>
</svg>
